<svg width="604" height="376" viewBox="0 0 604 376" fill="none" xmlns="http://www.w3.org/2000/svg">
<path d="M14.6815 356.967C0.563361 343.874 -3.8663 321.181 14.6815 287.009" stroke="#011859" stroke-width="0.75" stroke-miterlimit="10"/>
<path d="M390.962 18.0324V23.3676H165.54V18.0324C165.54 14.56 166.919 11.2298 169.375 8.77448C171.83 6.31914 175.16 4.93976 178.633 4.93976H377.869C381.342 4.93976 384.672 6.31914 387.127 8.77448C389.582 11.2298 390.962 14.56 390.962 18.0324Z" fill="#B7BF46"/>
<path d="M331.022 273.905L282.393 278.27C282.393 278.27 260.136 246.542 253.426 242.592C253.426 242.592 227.754 324.094 235.817 355.461C235.817 355.461 202.398 382.498 92.5508 365.215C92.5508 365.215 93.26 360.567 94.4383 353.083C95.3984 346.929 96.6204 338.899 98.1042 329.876C98.8898 324.934 99.7299 319.697 100.592 314.372C102.185 304.553 103.865 294.297 105.458 284.838C108.382 267.501 111.044 252.684 112.462 247.098C116.827 230.187 114.906 192.622 107.007 183.152C139.542 169.743 185.475 170.605 212.544 168.041C295.606 160.142 292.355 204.766 331.022 273.905Z" fill="#55BAD0"/>
<path opacity="0.15" d="M160.303 297.527L100.568 314.329C102.161 304.509 103.842 294.253 105.434 284.794C108.435 288.34 116.814 294.93 136.202 291.842C162.202 287.718 160.303 297.527 160.303 297.527Z" fill="#011859"/>
<path opacity="0.15" d="M156.692 323.657V339.259C128.467 336.957 101.627 349.351 94.415 353.006C95.3752 346.853 96.5971 338.823 98.081 329.8L119.957 321.966L156.692 323.657Z" fill="#011859"/>
<path d="M222.079 315.878C220.759 317.58 210.547 315.878 205.059 314.547C199.571 313.216 190.504 314.362 190.69 315.125C190.875 315.889 204.153 322.424 210.732 328.545C219.057 336.292 217.54 341.638 206.368 337.634C214.551 348.991 205.07 347.453 195.621 341.921C183.707 334.895 173.92 329.713 172.709 331.098C171.498 332.484 191.148 348.948 192.533 352.756C193.919 356.563 191.191 359.193 184.143 354.359C177.095 349.526 156.125 337.994 147.593 335.812C143.186 334.61 138.652 333.936 134.086 333.804C130.177 333.741 126.273 334.107 122.444 334.895C123.829 322.665 125.982 310.534 128.892 298.574L133.104 297.592C158.82 291.744 190.766 286.212 192.588 287.194C195.032 288.515 191.824 296.643 179.343 301.007C179.343 301.007 189.937 302.895 194.475 303.451C199.014 304.007 207.808 304.728 212.794 307.15C220.235 310.728 223.399 314.165 222.079 315.878Z" fill="#835959"/>
<path d="M390.962 18.0324V147.06C390.962 150.532 389.583 153.862 387.127 156.318C384.672 158.773 381.342 160.153 377.869 160.153H178.622C175.15 160.153 171.819 158.773 169.364 156.318C166.909 153.862 165.529 150.532 165.529 147.06V18.0324C165.529 14.56 166.909 11.2298 169.364 8.77448C171.819 6.31914 175.15 4.93976 178.622 4.93976H377.869C381.342 4.93976 384.672 6.31914 387.127 8.77448C389.583 11.2298 390.962 14.56 390.962 18.0324Z" stroke="#D0DAFD" stroke-width="0.75" stroke-miterlimit="10"/>
<path d="M233.852 225.015C228.015 227.481 221.632 224.394 221.632 224.394C219.232 225.659 215.249 229.161 211.54 232.696C206.837 237.181 202.56 241.698 202.56 241.698C180.183 231.54 176.888 206.042 180.903 191.869C175.906 186.414 177.51 178.231 183.085 175.504L195.37 142.008L225.418 145.423L250.425 160.163C260.037 201.852 244.588 220.477 233.852 225.015Z" fill="#835959"/>
<path d="M126.83 125.599V150.508C126.83 152.406 126.076 154.226 124.733 155.569C123.391 156.911 121.571 157.665 119.672 157.665H95.8876C93.9913 157.662 92.1736 156.907 90.8337 155.565C89.4938 154.223 88.7412 152.404 88.7412 150.508V118.758C88.7412 116.86 89.4953 115.039 90.8375 113.697C92.1798 112.355 94.0003 111.601 95.8985 111.601H112.842L126.83 125.599Z" fill="#B7BF46"/>
<path d="M480.254 2.82312H427.894C422.387 2.82312 417.922 7.28782 417.922 12.7953V65.1548C417.922 70.6623 422.387 75.127 427.894 75.127H480.254C485.761 75.127 490.226 70.6623 490.226 65.1548V12.7953C490.226 7.28782 485.761 2.82312 480.254 2.82312Z" fill="#F8D552"/>
<path d="M570.079 102.643V107.957H350.778V102.621C350.778 99.149 352.158 95.8189 354.613 93.3635C357.068 90.9082 360.399 89.5288 363.871 89.5288H556.987C558.708 89.5288 560.412 89.8682 562.002 90.5275C563.592 91.1868 565.036 92.1532 566.252 93.3713C567.468 94.5893 568.432 96.0352 569.089 97.6262C569.746 99.2172 570.082 100.922 570.079 102.643Z" fill="#55BAD0"/>
<path d="M570.08 102.643V242.298C570.08 245.77 568.701 249.1 566.245 251.556C563.79 254.011 560.46 255.39 556.988 255.39H363.817C360.345 255.39 357.015 254.011 354.559 251.556C352.104 249.1 350.725 245.77 350.725 242.298V102.643C350.725 99.1709 352.104 95.8407 354.559 93.3854C357.015 90.93 360.345 89.5507 363.817 89.5507H556.988C560.46 89.5507 563.79 90.93 566.245 93.3854C568.701 95.8407 570.08 99.1709 570.08 102.643V102.643Z" stroke="#B7BF46" stroke-miterlimit="10"/>
<path d="M461.128 57.9212C462.009 58.8017 463.072 59.478 464.243 59.9022C465.414 60.3264 466.663 60.4882 467.904 60.376C468.072 60.3591 468.231 60.2945 468.363 60.1898C468.496 60.0851 468.595 59.9447 468.65 59.7852C468.705 59.6257 468.714 59.4538 468.674 59.2897C468.635 59.1257 468.549 58.9764 468.427 58.8595L465.154 55.5863L466.245 50.9821L470.849 49.891L474.123 53.1642C474.241 53.2866 474.392 53.3722 474.558 53.4108C474.724 53.4494 474.897 53.4392 475.057 53.3816C475.217 53.324 475.358 53.2214 475.461 53.086C475.564 52.9507 475.626 52.7884 475.639 52.6187C475.77 51.153 475.519 49.6784 474.911 48.3388C474.302 46.9991 473.356 45.8402 472.166 44.9751C470.975 44.1101 469.581 43.5685 468.119 43.4032C466.657 43.2379 465.177 43.4546 463.823 44.0321L448.788 29.0956C449.422 27.6044 449.618 25.9634 449.352 24.365C449.086 22.7667 448.37 21.2773 447.288 20.0714C446.206 18.8655 444.802 17.9931 443.242 17.5566C441.681 17.1201 440.029 17.1375 438.478 17.6069L442.93 22.0584L441.838 26.6626L437.234 27.7536L432.783 23.3022C432.309 24.8535 432.288 26.5081 432.723 28.0709C433.157 29.6337 434.03 31.0397 435.237 32.1232C436.445 33.2067 437.936 33.9225 439.537 34.1864C441.138 34.4503 442.78 34.2512 444.272 33.6126L459.252 48.5927C458.6 50.1576 458.43 51.8817 458.764 53.5437C459.099 55.2057 459.922 56.73 461.128 57.9212Z" fill="white"/>
<path d="M435.304 52.7714C434.865 53.1913 434.514 53.6946 434.273 54.2518C434.031 54.809 433.903 55.4088 433.897 56.0161C433.89 56.6233 434.005 57.2258 434.234 57.7881C434.464 58.3505 434.803 58.8613 435.232 59.2908C435.662 59.7202 436.173 60.0595 436.735 60.2889C437.297 60.5182 437.9 60.6329 438.507 60.6263C439.114 60.6196 439.714 60.4918 440.271 60.2502C440.828 60.0086 441.332 59.6582 441.752 59.2195L450.993 49.1382L452.084 47.938C452.511 47.4715 452.741 46.8582 452.726 46.2261C452.712 45.594 452.455 44.9918 452.007 44.5449L449.989 42.4937C449.542 42.0465 448.94 41.7889 448.308 41.7747C447.676 41.7604 447.062 41.9906 446.596 42.4173L445.396 43.5084L435.304 52.7714Z" fill="white"/>
<path d="M465.404 24.175L471.503 20.1381C471.772 19.9576 472.096 19.8763 472.418 19.9082C472.741 19.94 473.042 20.083 473.271 20.3127L473.751 20.7927L474.231 21.2728C474.46 21.5014 474.603 21.8027 474.635 22.1252C474.667 22.4477 474.586 22.7712 474.405 23.0403L470.368 29.1392C470.259 29.304 470.116 29.4437 469.948 29.5491C469.781 29.6544 469.593 29.723 469.397 29.7502L467.313 30.0339L451.395 45.4614L450.239 44.3049L449.082 43.1483L464.499 27.219L464.782 25.1351C464.812 24.9402 464.883 24.7539 464.99 24.5884C465.098 24.423 465.239 24.2821 465.404 24.175Z" fill="white"/>
<path d="M445.395 43.5302L451.003 49.1382L452.094 47.938C452.52 47.4715 452.75 46.8582 452.736 46.2261C452.722 45.594 452.464 44.9918 452.017 44.5449L449.988 42.4937C449.541 42.0465 448.939 41.7889 448.307 41.7747C447.674 41.7604 447.061 41.9906 446.595 42.4173L445.395 43.5302Z" fill="white"/>
<path d="M574.434 124.257L576.038 119.402C578.005 119.074 579.924 118.51 581.755 117.722L585.738 120.995C586.174 121.345 586.716 121.537 587.276 121.537C587.835 121.537 588.378 121.345 588.814 120.995L593.822 116.958C594.259 116.606 594.562 116.116 594.681 115.568C594.8 115.02 594.728 114.448 594.477 113.947L592.175 109.375C593.336 107.751 594.295 105.993 595.033 104.138L600.118 103.603C600.676 103.544 601.197 103.295 601.594 102.898C601.991 102.501 602.24 101.98 602.3 101.421L602.987 95.0278C603.045 94.471 602.912 93.9111 602.608 93.4408C602.304 92.9705 601.849 92.6181 601.318 92.442L596.462 90.8381C596.135 88.8716 595.571 86.952 594.782 85.121L598.055 81.1387C598.406 80.7026 598.597 80.1599 598.597 79.6003C598.597 79.0407 598.406 78.498 598.055 78.0619L594.019 73.054C593.667 72.6174 593.176 72.3144 592.628 72.1953C592.081 72.0762 591.508 72.1482 591.007 72.3994L586.436 74.7015C584.812 73.5406 583.053 72.5808 581.199 71.8429L580.664 66.7587C580.605 66.2002 580.356 65.679 579.959 65.2819C579.562 64.8848 579.04 64.6358 578.482 64.5766L572.088 63.8892C571.532 63.8309 570.972 63.9647 570.501 64.2683C570.031 64.5719 569.679 65.0271 569.503 65.5585L567.899 70.4137C565.932 70.7411 564.013 71.3053 562.182 72.0939L558.199 68.8207C557.763 68.4701 557.221 68.2789 556.661 68.2789C556.101 68.2789 555.559 68.4701 555.123 68.8207L550.115 72.8576C549.678 73.2094 549.375 73.6999 549.256 74.2478C549.137 74.7956 549.209 75.3677 549.46 75.8689L551.762 80.4404C550.601 82.0642 549.642 83.8227 548.904 85.6775L543.819 86.2121C543.261 86.2713 542.74 86.5203 542.343 86.9174C541.945 87.3145 541.696 87.8357 541.637 88.3942L540.95 94.7877C540.892 95.3445 541.025 95.9044 541.329 96.3747C541.633 96.845 542.088 97.1974 542.619 97.3735L547.474 98.9774C547.806 100.941 548.374 102.857 549.166 104.684L545.892 108.666C545.542 109.102 545.351 109.645 545.351 110.204C545.351 110.764 545.542 111.307 545.892 111.743L549.929 116.751C550.281 117.187 550.772 117.49 551.319 117.609C551.867 117.728 552.439 117.656 552.941 117.405L557.512 115.103C559.136 116.264 560.894 117.224 562.749 117.962L563.284 123.046C563.343 123.604 563.592 124.126 563.989 124.523C564.386 124.92 564.907 125.169 565.466 125.228L571.859 125.915C572.413 125.972 572.969 125.838 573.437 125.537C573.905 125.236 574.257 124.784 574.434 124.257ZM558.767 93.4676C559.047 90.8607 560.094 88.3956 561.776 86.384C563.457 84.3723 565.698 82.9045 568.213 82.166C570.729 81.4276 573.407 81.4518 575.909 82.2355C578.411 83.0192 580.625 84.5272 582.27 86.5689C583.915 88.6105 584.917 91.0941 585.151 93.7056C585.384 96.317 584.838 98.939 583.581 101.24C582.324 103.541 580.413 105.418 578.09 106.633C575.767 107.848 573.135 108.346 570.528 108.066C567.033 107.69 563.83 105.94 561.624 103.202C559.419 100.465 558.391 96.9631 558.767 93.4676Z" fill="#E7AB43" stroke="#011859" stroke-width="0.5" stroke-miterlimit="10"/>
<path d="M535.832 86.3103L535.69 83.3535C536.684 82.7684 537.604 82.065 538.429 81.2587L541.244 82.1752C541.552 82.2769 541.886 82.2695 542.19 82.1544C542.494 82.0392 542.749 81.8231 542.913 81.5424L544.779 78.3347C544.94 78.0547 545.001 77.7278 544.951 77.4084C544.902 77.0889 544.745 76.796 544.506 76.5781L542.324 74.5815C542.617 73.4663 542.775 72.3196 542.793 71.1665L545.433 69.8245C545.723 69.678 545.953 69.4367 546.086 69.1409C546.219 68.845 546.247 68.5126 546.164 68.1988L545.215 64.6093C545.139 64.2884 544.954 64.0039 544.691 63.8048C544.428 63.6057 544.104 63.5043 543.775 63.5182L540.818 63.6601C540.233 62.666 539.53 61.7464 538.723 60.9215L539.64 58.1066C539.741 57.798 539.734 57.4638 539.619 57.1599C539.504 56.8561 539.288 56.601 539.007 56.4373L535.799 54.5716C535.519 54.4101 535.192 54.3491 534.873 54.3987C534.553 54.4483 534.261 54.6056 534.043 54.8444L532.046 57.0265C530.931 56.7328 529.784 56.5753 528.631 56.5573L527.344 53.9606C527.197 53.6713 526.956 53.4409 526.66 53.3079C526.364 53.1749 526.032 53.1472 525.718 53.2296L522.128 54.1789C521.807 54.2547 521.523 54.4399 521.324 54.7027C521.125 54.9656 521.023 55.2896 521.037 55.619L521.179 58.5758C520.185 59.1609 519.266 59.8643 518.441 60.6706L515.626 59.7541C515.317 59.6524 514.983 59.6598 514.679 59.775C514.375 59.8901 514.12 60.1062 513.956 60.3869L512.069 63.5837C511.907 63.8637 511.846 64.1906 511.896 64.51C511.946 64.8295 512.103 65.1224 512.342 65.3403L514.524 67.3369C514.23 68.4521 514.073 69.5988 514.055 70.7519L511.414 72.0939C511.125 72.2404 510.895 72.4817 510.761 72.7775C510.628 73.0734 510.601 73.4058 510.683 73.7195L511.632 77.3091C511.708 77.63 511.894 77.9145 512.156 78.1136C512.419 78.3127 512.743 78.4141 513.073 78.4002L516.029 78.2583C516.615 79.2524 517.318 80.172 518.124 80.9968L517.208 83.8118C517.106 84.1204 517.113 84.4546 517.229 84.7585C517.344 85.0623 517.56 85.3174 517.841 85.4811L521.048 87.3468C521.328 87.5083 521.655 87.5693 521.975 87.5197C522.294 87.4701 522.587 87.3129 522.805 87.074L524.801 84.8919C525.917 85.1856 527.063 85.3431 528.216 85.361L529.558 88.0014C529.705 88.2908 529.946 88.5211 530.242 88.6542C530.538 88.7872 530.87 88.8148 531.184 88.7324L534.774 87.7832C535.094 87.6999 535.376 87.507 535.569 87.238C535.762 86.9689 535.855 86.6407 535.832 86.3103ZM521.016 72.9122C520.636 71.4523 520.696 69.9127 521.19 68.4874C521.684 67.0621 522.59 65.815 523.791 64.9034C524.993 63.9919 526.438 63.4566 527.944 63.3652C529.45 63.2738 530.949 63.6304 532.252 64.3899C533.555 65.1494 534.605 66.2779 535.267 67.6329C535.93 68.988 536.177 70.509 535.976 72.0041C535.776 73.4992 535.137 74.9014 534.14 76.0339C533.144 77.1663 531.834 77.9783 530.377 78.3674C529.404 78.6272 528.389 78.692 527.391 78.5581C526.393 78.4242 525.431 78.0942 524.561 77.5872C523.691 77.0802 522.93 76.4061 522.322 75.6038C521.713 74.8015 521.269 73.8867 521.016 72.9122Z" fill="#A349A8"/>
<path d="M558.319 63.0709L559.072 60.8888C559.952 60.7567 560.813 60.5186 561.636 60.1796L563.392 61.6416C563.587 61.7993 563.83 61.8854 564.08 61.8854C564.33 61.8854 564.573 61.7993 564.767 61.6416L567.026 59.8741C567.225 59.721 567.365 59.5039 567.423 59.2594C567.48 59.0149 567.452 58.7581 567.342 58.5321L566.349 56.481C566.877 55.7656 567.317 54.9889 567.658 54.1679L569.928 53.9606C570.179 53.9397 570.415 53.8327 570.596 53.6577C570.776 53.4827 570.891 53.2505 570.921 53.0005L571.27 50.1529C571.301 49.9039 571.245 49.6519 571.112 49.4392C570.979 49.2266 570.776 49.0663 570.539 48.9854L568.357 48.2326C568.238 47.3886 568.022 46.5611 567.713 45.7669L569.175 44.0103C569.333 43.8159 569.419 43.5732 569.419 43.3229C569.419 43.0726 569.333 42.8299 569.175 42.6355L567.397 40.3116C567.244 40.1124 567.026 39.9722 566.782 39.9145C566.537 39.8569 566.281 39.8854 566.055 39.9952L564.003 40.988C563.288 40.46 562.511 40.0204 561.69 39.6788L561.483 37.4094C561.462 37.1586 561.355 36.9227 561.18 36.7417C561.005 36.5608 560.773 36.4459 560.523 36.4165L557.675 36.0674C557.426 36.0365 557.174 36.0923 556.962 36.2254C556.749 36.3586 556.589 36.5609 556.508 36.7984L555.755 38.9805C554.875 39.1126 554.014 39.3507 553.191 39.6897L551.435 38.2277C551.24 38.07 550.998 37.9839 550.747 37.9839C550.497 37.9839 550.254 38.07 550.06 38.2277L547.801 39.9952C547.602 40.1483 547.462 40.3654 547.404 40.6099C547.347 40.8544 547.375 41.1113 547.485 41.3372L548.478 43.3884C547.95 44.1038 547.51 44.8804 547.169 45.7014L544.899 45.9087C544.648 45.9296 544.412 46.0367 544.231 46.2117C544.051 46.3866 543.936 46.6188 543.906 46.8688L543.557 49.7164C543.526 49.9654 543.582 50.2175 543.715 50.4301C543.848 50.6427 544.051 50.803 544.288 50.8839L546.47 51.6367C546.602 52.5168 546.84 53.3777 547.179 54.2007L545.717 55.9573C545.56 56.1516 545.474 56.3943 545.474 56.6446C545.474 56.8949 545.56 57.1376 545.717 57.332L547.485 59.5905C547.638 59.7896 547.855 59.9299 548.1 59.9875C548.344 60.0452 548.601 60.0167 548.827 59.9069L550.878 58.914C551.594 59.4421 552.37 59.8817 553.191 60.2233L553.398 62.4927C553.419 62.7435 553.526 62.9794 553.701 63.1603C553.876 63.3413 554.109 63.4562 554.359 63.4855L557.206 63.8346C557.45 63.8506 557.693 63.784 557.895 63.6455C558.097 63.507 558.246 63.3046 558.319 63.0709ZM551.544 49.2146C551.678 48.0507 552.155 46.9529 552.914 46.0605C553.673 45.168 554.68 44.5212 555.807 44.2021C556.935 43.8829 558.131 43.9059 559.246 44.2679C560.36 44.63 561.342 45.3149 562.066 46.2357C562.79 47.1566 563.225 48.2718 563.314 49.44C563.404 50.6082 563.144 51.7767 562.569 52.7971C561.993 53.8176 561.128 54.6441 560.081 55.1718C559.035 55.6994 557.856 55.9045 556.693 55.7609C555.145 55.5697 553.735 54.7743 552.77 53.5482C551.806 52.322 551.365 50.7644 551.544 49.2146Z" fill="#55BAD0"/>
<path d="M367.865 102.687C370.028 102.687 371.782 100.933 371.782 98.77C371.782 96.6068 370.028 94.8531 367.865 94.8531C365.702 94.8531 363.948 96.6068 363.948 98.77C363.948 100.933 365.702 102.687 367.865 102.687Z" fill="white"/>
<path d="M381.262 102.687C383.425 102.687 385.178 100.933 385.178 98.77C385.178 96.6068 383.425 94.8531 381.262 94.8531C379.098 94.8531 377.345 96.6068 377.345 98.77C377.345 100.933 379.098 102.687 381.262 102.687Z" fill="#3D8AA0"/>
<path d="M394.661 102.687C396.824 102.687 398.578 100.933 398.578 98.77C398.578 96.6068 396.824 94.8531 394.661 94.8531C392.498 94.8531 390.744 96.6068 390.744 98.77C390.744 100.933 392.498 102.687 394.661 102.687Z" fill="white"/>
<path d="M182.67 18.0651C184.833 18.0651 186.587 16.3114 186.587 14.1482C186.587 11.985 184.833 10.2313 182.67 10.2313C180.507 10.2313 178.753 11.985 178.753 14.1482C178.753 16.3114 180.507 18.0651 182.67 18.0651Z" fill="white"/>
<path d="M196.069 18.0651C198.232 18.0651 199.986 16.3114 199.986 14.1482C199.986 11.985 198.232 10.2313 196.069 10.2313C193.906 10.2313 192.152 11.985 192.152 14.1482C192.152 16.3114 193.906 18.0651 196.069 18.0651Z" fill="#F8D552"/>
<path d="M209.466 18.0651C211.629 18.0651 213.383 16.3114 213.383 14.1482C213.383 11.985 211.629 10.2313 209.466 10.2313C207.302 10.2313 205.549 11.985 205.549 14.1482C205.549 16.3114 207.302 18.0651 209.466 18.0651Z" fill="white"/>
<path d="M264.29 78.2582L249.855 65.8094L264.29 53.3714" stroke="#494B4C" stroke-width="3" stroke-linecap="round" stroke-linejoin="round"/>
<path d="M292.202 78.2582L306.637 65.8094L292.202 53.3714" stroke="#494B4C" stroke-width="3" stroke-linecap="round" stroke-linejoin="round"/>
<path d="M285.916 49.0836L270.564 82.5352" stroke="#494B4C" stroke-width="3" stroke-linecap="round" stroke-linejoin="round"/>
<path d="M382.343 34.1799C382.909 33.6171 383.302 32.904 383.476 32.1249C383.649 31.3458 383.596 30.5333 383.322 29.7835C383.048 29.0338 382.566 28.3781 381.931 27.894C381.296 27.41 380.536 27.1178 379.741 27.0521C378.945 26.9864 378.148 27.1499 377.442 27.5232C376.737 27.8965 376.153 28.4641 375.76 29.1588C375.367 29.8535 375.181 30.6462 375.224 31.4432C375.267 32.2402 375.538 33.0081 376.004 33.6562C374.698 34.5696 373.536 35.6728 372.556 36.9293C372.466 37.0815 372.429 37.2593 372.452 37.4347C372.474 37.6101 372.554 37.7731 372.679 37.8981C372.804 38.0231 372.967 38.103 373.142 38.1251C373.317 38.1473 373.495 38.1104 373.647 38.0204C374.904 37.0406 376.007 35.8785 376.921 34.5727C377.723 35.1648 378.71 35.4507 379.704 35.3787C380.699 35.3067 381.635 34.8815 382.343 34.1799ZM377.619 33.7762C377.314 33.5687 377.052 33.3059 376.844 33.0016C376.402 32.366 376.214 31.5879 376.317 30.8206C376.42 30.0533 376.806 29.3522 377.4 28.8555C377.994 28.3588 378.752 28.1024 379.526 28.1368C380.299 28.1712 381.032 28.4939 381.579 29.0413C382.126 29.5888 382.449 30.3213 382.484 31.0947C382.518 31.8682 382.261 32.6265 381.765 33.2203C381.268 33.8142 380.567 34.2006 379.8 34.3035C379.032 34.4063 378.254 34.2182 377.619 33.7762Z" fill="#9C92DC"/>
<path d="M210.503 32.576H243.922" stroke="#9C92DC" stroke-width="0.75" stroke-miterlimit="10"/>
<path d="M184.296 29.9575H185.496L186.358 32.8379L187.133 29.9575H188.027L188.791 32.8379L189.653 29.9575H190.853L189.129 34.66H188.431L187.547 31.605L186.653 34.66H185.954L184.296 29.9575Z" fill="#9C92DC"/>
<path d="M191.081 29.9575H192.281L193.143 32.8379L193.918 29.9575H194.812L195.576 32.8379L196.438 29.9575H197.638L195.914 34.66H195.216L194.332 31.605L193.438 34.66H192.739L191.081 29.9575Z" fill="#9C92DC"/>
<path d="M197.847 29.9575H199.047L199.909 32.8379L200.683 29.9575H201.578L202.342 32.8379L203.204 29.9575H204.404L202.68 34.66H201.982L201.12 31.5832L200.225 34.6381H199.527L197.847 29.9575Z" fill="#9C92DC"/>
<path d="M205.19 33.5361H206.281V34.6272H205.19V33.5361Z" fill="#9C92DC"/>
<path d="M247.827 33.5361H248.918V34.6272H247.827V33.5361Z" fill="#9C92DC"/>
<path d="M254.756 33.1324C254.602 33.6361 254.29 34.0763 253.865 34.3872C253.44 34.698 252.925 34.8626 252.399 34.8563C251.734 34.8563 251.095 34.5919 250.625 34.1213C250.154 33.6507 249.89 33.0124 249.89 32.3469C249.89 31.6813 250.154 31.0431 250.625 30.5725C251.095 30.1018 251.734 29.8375 252.399 29.8375C252.926 29.834 253.44 29.9996 253.866 30.3098C254.293 30.6201 254.608 31.0587 254.767 31.5613H253.49C253.396 31.3522 253.242 31.1756 253.048 31.0533C252.854 30.9311 252.628 30.8687 252.399 30.874C252.211 30.875 252.025 30.9146 251.853 30.9904C251.68 31.0662 251.526 31.1766 251.398 31.3147C251.27 31.4527 251.172 31.6156 251.109 31.7932C251.047 31.9707 251.022 32.1592 251.035 32.3469C251.032 32.7146 251.173 33.0689 251.428 33.334C251.683 33.5991 252.031 33.7539 252.399 33.7652C252.624 33.7681 252.845 33.7084 253.037 33.5928C253.23 33.4771 253.387 33.3102 253.49 33.1106L254.756 33.1324Z" fill="#9C92DC"/>
<path d="M255.225 32.3251C255.225 31.6585 255.489 31.0192 255.959 30.5468C256.429 30.0745 257.068 29.8077 257.734 29.8048C258.063 29.8033 258.388 29.867 258.692 29.992C258.996 30.1171 259.272 30.3011 259.504 30.5334C259.736 30.7657 259.92 31.0417 260.045 31.3454C260.17 31.6492 260.234 31.9748 260.233 32.3033C260.241 32.6348 260.183 32.9647 260.061 33.2731C259.939 33.5815 259.755 33.8619 259.522 34.0974C259.288 34.333 259.01 34.5188 258.702 34.6436C258.395 34.7684 258.066 34.8296 257.734 34.8236C257.071 34.8208 256.436 34.557 255.967 34.0893C255.497 33.6217 255.23 32.9879 255.225 32.3251ZM259.098 32.3251C259.098 31.9605 258.953 31.6108 258.695 31.353C258.437 31.0952 258.088 30.9504 257.723 30.9504C257.359 30.9504 257.009 31.0952 256.751 31.353C256.493 31.6108 256.348 31.9605 256.348 32.3251C256.348 32.6897 256.493 33.0394 256.751 33.2972C257.009 33.555 257.359 33.6998 257.723 33.6998C258.088 33.6998 258.437 33.555 258.695 33.2972C258.953 33.0394 259.098 32.6897 259.098 32.3251Z" fill="#9C92DC"/>
<path d="M260.899 29.9575H261.936V30.3612C262.074 30.1676 262.261 30.0141 262.477 29.9163C262.694 29.8185 262.932 29.78 263.169 29.8048C263.439 29.8037 263.704 29.8712 263.941 30.001C264.178 30.1308 264.377 30.3185 264.522 30.5467C264.69 30.3041 264.918 30.1086 265.184 29.9788C265.449 29.849 265.743 29.789 266.038 29.8048C266.337 29.7903 266.634 29.8494 266.904 29.9768C267.174 30.1043 267.409 30.2963 267.588 30.5358C267.854 30.9507 267.98 31.4403 267.948 31.9323V34.6818H266.857V32.0742C266.857 31.8014 266.857 30.8522 265.962 30.8522C265.804 30.8514 265.65 30.8911 265.512 30.9675C265.374 31.0439 265.259 31.1545 265.176 31.2886C265.042 31.5898 264.986 31.92 265.013 32.2487V34.6818H263.922V32.0742C263.922 31.4304 263.671 30.8522 262.983 30.8522C262.089 30.8522 262.089 31.8341 262.089 32.336V34.6818H260.998L260.899 29.9575Z" fill="#9C92DC"/>
<path d="M390.962 23.3675H165.54V41.2607H390.962V23.3675Z" stroke="#9C92DC" stroke-width="0.75" stroke-miterlimit="10"/>
<path d="M189.741 91.9182H210.504" stroke="#E7AB43" stroke-miterlimit="10"/>
<path d="M189.741 118.485H210.504" stroke="#E7AB43" stroke-miterlimit="10"/>
<path d="M306.634 99.9484H333.921" stroke="#E7AB43" stroke-miterlimit="10"/>
<path d="M284.585 99.9484H294.448" stroke="#E7AB43" stroke-miterlimit="10"/>
<path d="M202.407 99.9484H276.74" stroke="#E7AB43" stroke-miterlimit="10"/>
<path d="M204.852 109.211H315.866" stroke="#6B6CE3" stroke-miterlimit="10"/>
<path d="M243.965 128.381H326.71" stroke="#E7AB43" stroke-miterlimit="10"/>
<path d="M276.739 136.87H326.709" stroke="#6B6CE3" stroke-miterlimit="10"/>
<path d="M182.985 175.493C177.825 147.409 191.714 135.331 191.714 135.331C191.714 135.331 191.234 137.044 193.089 132.604C195.816 132.099 195.297 131.458 197.584 131.458C197.584 131.458 206.901 127.028 221.369 128.381C235.836 129.734 234.623 131.109 250.395 135.331L262.054 141.291V148.642L248.437 155.668C253.893 162.215 229.562 157.294 229.562 157.294L205.701 148.566C205.701 148.566 204.326 170.518 193.089 177.948C191.708 176.786 190.078 175.96 188.325 175.535C186.572 175.109 184.745 175.094 182.985 175.493Z" fill="#2B292B"/>
<path d="M180.848 191.858C182.66 193.712 184.907 195.083 187.384 195.845C189.862 196.607 192.491 196.737 195.031 196.223" stroke="#2B292B" stroke-miterlimit="10"/>
<path d="M525.947 332.713H525.456L526.165 322.894H483.614L486.636 364.495C486.82 366.96 487.927 369.264 489.735 370.948C491.543 372.633 493.919 373.574 496.39 373.584H513.411C515.893 373.591 518.286 372.657 520.108 370.971C521.93 369.285 523.045 366.971 523.23 364.495V364.353C525.422 364.771 527.677 364.725 529.85 364.217C532.023 363.71 534.066 362.752 535.846 361.406C537.626 360.06 539.104 358.357 540.184 356.404C541.265 354.452 541.924 352.295 542.12 350.072C542.315 347.849 542.043 345.61 541.319 343.499C540.596 341.388 539.438 339.452 537.92 337.816C536.402 336.181 534.558 334.881 532.507 334.002C530.456 333.123 528.244 332.684 526.013 332.713H525.947ZM525.947 356.061C525.208 356.066 524.472 355.959 523.765 355.745L524.856 341.376C525.217 341.317 525.582 341.288 525.947 341.289C527.907 341.289 529.788 342.067 531.174 343.454C532.56 344.84 533.339 346.72 533.339 348.681C533.339 350.641 532.56 352.521 531.174 353.907C529.788 355.294 527.907 356.072 525.947 356.072V356.061Z" fill="#FEC942"/>
<path d="M483.58 322.894L484.071 329.636H525.673L526.164 322.894H483.58Z" fill="#FF8E00"/>
<path d="M520.797 275.542C520.895 278.106 516.64 280.768 516.727 283.179C516.825 285.787 521.288 288.1 521.375 290.446C521.484 293.119 517.218 295.781 517.305 298.083C517.414 300.92 521.877 303.244 521.953 305.339C522.138 310.052 517.742 309.223 517.883 312.976" stroke="#9C92DC" stroke-width="0.75" stroke-miterlimit="10"/>
<path d="M491.971 275.542C492.07 278.106 487.814 280.768 487.902 283.179C488 285.787 492.462 288.1 492.55 290.446C492.659 293.119 488.393 295.781 488.48 298.083C488.589 300.92 493.052 303.244 493.128 305.339C493.313 310.052 488.916 309.223 489.058 312.976" stroke="#9C92DC" stroke-width="0.75" stroke-miterlimit="10"/>
<path d="M506.723 267.392C506.821 269.956 502.566 272.618 502.654 275.029C502.752 277.637 507.214 279.95 507.302 282.296C507.411 284.969 503.145 287.631 503.232 289.933C503.341 292.77 507.803 295.094 507.88 297.188C508.065 301.902 503.668 301.073 503.81 304.826" stroke="#9C92DC" stroke-width="0.75" stroke-miterlimit="10"/>
<path d="M136.618 360.207H224.142V373.595H124.747V372.133C124.747 368.979 125.996 365.954 128.221 363.719C130.445 361.485 133.464 360.222 136.618 360.207Z" fill="#011859"/>
<path d="M413.329 107.957V255.401H363.817C360.345 255.401 357.015 254.022 354.559 251.566C352.104 249.111 350.725 245.781 350.725 242.309V107.957H413.329Z" fill="#3D8AA0" stroke="#9C92DC" stroke-miterlimit="10"/>
<path d="M181.841 182.934C183.15 178.853 192.751 179.759 194.355 185.759" stroke="#2B292B" stroke-miterlimit="10"/>
<path d="M371.782 114.721H401.819" stroke="white" stroke-miterlimit="10"/>
<path d="M362.191 124.039H401.818" stroke="white" stroke-miterlimit="10"/>
<path d="M385.715 133.367H401.819" stroke="white" stroke-miterlimit="10"/>
<path d="M389.512 142.685H401.819" stroke="white" stroke-miterlimit="10"/>
<path d="M374.718 152.002H401.819" stroke="white" stroke-miterlimit="10"/>
<path d="M385.18 161.909H401.818" stroke="white" stroke-miterlimit="10"/>
<path d="M380.389 179.955H401.817" stroke="white" stroke-miterlimit="10"/>
<path d="M366.589 179.955H375.372" stroke="white" stroke-miterlimit="10"/>
<path d="M371.782 189.273H401.819" stroke="white" stroke-miterlimit="10"/>
<path d="M390.309 198.59H401.819" stroke="white" stroke-miterlimit="10"/>
<path d="M380.837 207.908H401.818" stroke="white" stroke-miterlimit="10"/>
<path d="M367.505 207.908H376.222" stroke="white" stroke-miterlimit="10"/>
<path d="M378.448 217.225H401.819" stroke="white" stroke-miterlimit="10"/>
<path d="M364.079 217.225H372.895" stroke="white" stroke-miterlimit="10"/>
<path d="M428.833 115.725H422.538V122.02H428.833V115.725Z" fill="#A349A8"/>
<path d="M428.833 133.716H422.538V140.012H428.833V133.716Z" fill="#A349A8"/>
<path d="M428.833 151.708H422.538V158.003H428.833V151.708Z" fill="#D0DAFD"/>
<path d="M428.833 169.699H422.538V175.995H428.833V169.699Z" fill="#A349A8"/>
<path d="M428.833 187.691H422.538V193.986H428.833V187.691Z" fill="#D0DAFD"/>
<path d="M428.833 205.682H422.538V211.977H428.833V205.682Z" fill="#D0DAFD"/>
<path d="M529.275 116.871H540.197" stroke="#6B6CE3" stroke-miterlimit="10"/>
<path d="M441.097 116.871H520.503" stroke="#FFC5CB" stroke-miterlimit="10"/>
<path d="M501.801 124.966H540.195" stroke="#FFC5CB" stroke-miterlimit="10"/>
<path d="M482.065 124.966H495.365" stroke="#FFC5CB" stroke-miterlimit="10"/>
<path d="M441.097 124.966H472.704" stroke="#6B6CE3" stroke-miterlimit="10"/>
<path d="M463.648 172.481H527.071" stroke="#FFC5CB" stroke-miterlimit="10"/>
<path d="M441.097 172.481H455.182" stroke="#FFC5CB" stroke-miterlimit="10"/>
<path d="M501.801 180.577H542.53" stroke="#FFC5CB" stroke-miterlimit="10"/>
<path d="M441.097 180.577H490.652" stroke="#6B6CE3" stroke-miterlimit="10"/>
<path d="M530.639 188.673H547.943" stroke="#6B6CE3" stroke-miterlimit="10"/>
<path d="M465.46 188.673H522.806" stroke="#FFC5CB" stroke-miterlimit="10"/>
<path d="M441.097 188.673H454.08" stroke="#FFC5CB" stroke-miterlimit="10"/>
<path d="M441.097 196.768H492.103" stroke="#FFC5CB" stroke-miterlimit="10"/>
<path d="M500.874 139.292H509.341" stroke="#6B6CE3" stroke-miterlimit="10"/>
<path d="M491.666 139.292H497.645" stroke="#6B6CE3" stroke-miterlimit="10"/>
<path d="M472.201 139.292H488.141" stroke="#FFC5CB" stroke-miterlimit="10"/>
<path d="M460.408 139.292H467.227" stroke="#FFC5CB" stroke-miterlimit="10"/>
<path d="M475.89 147.387H503.69" stroke="#FFC5CB" stroke-miterlimit="10"/>
<path d="M460.408 147.387H470.053" stroke="#FFC5CB" stroke-miterlimit="10"/>
<path d="M460.408 155.483H492.343" stroke="#6B6CE3" stroke-miterlimit="10"/>
<path d="M521.146 212.348H542.16" stroke="#FFC5CB" stroke-miterlimit="10"/>
<path d="M502.533 212.348H512.745" stroke="#6B6CE3" stroke-miterlimit="10"/>
<path d="M464.073 212.348H495.081" stroke="#FFC5CB" stroke-miterlimit="10"/>
<path d="M489.233 220.444H528.053" stroke="#6B6CE3" stroke-miterlimit="10"/>
<path d="M464.073 220.444H478.911" stroke="#FFC5CB" stroke-miterlimit="10"/>
<path d="M109.756 303.582C114.763 302 121.463 300.254 128.893 298.498C125.983 310.457 123.829 322.588 122.444 334.819C115.857 336.21 109.496 338.516 103.547 341.671C82.3484 352.581 36.2733 372.787 15.6634 361.713C-4.94653 350.639 -4.04096 333.608 11.5174 302.044C27.0758 270.48 74.9838 197.543 107.006 183.119C121.954 181.188 145.455 224.164 112.461 247.066C101.551 253.099 86.2762 267.228 74.6674 281.183C68.8739 288.154 64.0515 295.05 61.1602 300.898C58.8253 305.633 57.767 309.626 58.5635 312.43C59.36 315.234 87.0617 310.772 109.756 303.582Z" fill="#55BAD0"/>
<path opacity="0.15" d="M79.8377 321.988C79.8377 321.988 58.4204 332.713 42.9166 318.082C27.4128 303.451 73.9897 281.423 74.557 281.139C68.7636 288.111 63.9411 295.006 61.0498 300.854C47.5645 320.711 79.8377 321.988 79.8377 321.988Z" fill="#011859"/>
<path d="M221.587 189.938C222.69 189.938 223.584 188.595 223.584 186.938C223.584 185.281 222.69 183.937 221.587 183.937C220.485 183.937 219.591 185.281 219.591 186.938C219.591 188.595 220.485 189.938 221.587 189.938Z" fill="#2B292B"/>
<path d="M247.283 189.938C248.385 189.938 249.279 188.595 249.279 186.938C249.279 185.281 248.385 183.937 247.283 183.937C246.18 183.937 245.286 185.281 245.286 186.938C245.286 188.595 246.18 189.938 247.283 189.938Z" fill="#2B292B"/>
<path d="M227.697 177.38H209.171C207.996 177.38 207.043 178.333 207.043 179.508V191.018C207.043 192.193 207.996 193.146 209.171 193.146H227.697C228.872 193.146 229.824 192.193 229.824 191.018V179.508C229.824 178.333 228.872 177.38 227.697 177.38Z" stroke="#2B292B" stroke-width="0.75" stroke-miterlimit="10"/>
<path d="M262.666 177.38H244.14C242.965 177.38 242.013 178.333 242.013 179.508V191.018C242.013 192.193 242.965 193.146 244.14 193.146H262.666C263.841 193.146 264.794 192.193 264.794 191.018V179.508C264.794 178.333 263.841 177.38 262.666 177.38Z" stroke="#2B292B" stroke-width="0.75" stroke-miterlimit="10"/>
<path d="M229.824 185.258H242.011" stroke="#2B292B" stroke-width="0.75" stroke-miterlimit="10"/>
<path d="M238.018 183.043C236.589 187.723 236.436 195.328 239.109 198.656C237.654 199.657 235.981 200.294 234.228 200.514C232.476 200.734 230.697 200.531 229.039 199.921" stroke="#2B292B" stroke-width="0.75" stroke-miterlimit="10"/>
<path d="M221.576 224.394C219.176 225.659 215.194 229.161 211.484 232.696L204.229 209.97C208.985 216.931 216.776 222.582 221.576 224.394Z" fill="#2B292B"/>
<path d="M139.464 60.9215H82.8931C79.9043 60.9215 77.4814 63.3444 77.4814 66.3331V91.4054C77.4814 94.3942 79.9043 96.817 82.8931 96.817H139.464C142.453 96.817 144.876 94.3942 144.876 91.4054V66.3331C144.876 63.3444 142.453 60.9215 139.464 60.9215Z" fill="#55BAD0"/>
<path d="M90.4209 72.5194H92.8976V77.9747H97.6873V72.5194H100.164V85.8848H97.6873V80.2659H92.8976V85.8848H90.4209V72.5194Z" fill="white"/>
<path d="M104.017 74.8324H101.54V72.5194H108.981V74.8324H106.482V85.8848H104.017V74.8324Z" fill="white"/>
<path d="M110.148 72.5194H113.585L117.142 82.6334L120.666 72.5194H124.103V85.8848H121.626V75.858L118.2 85.8848H116.106L112.669 75.858V85.8848H110.192L110.148 72.5194Z" fill="white"/>
<path d="M126.568 72.5194H129.045V83.5717H133.126V85.8848H126.579L126.568 72.5194Z" fill="white"/>
<path d="M589.533 242.385V272.934C589.534 273.927 589.34 274.911 588.962 275.829C588.583 276.747 588.027 277.581 587.326 278.284C586.625 278.987 585.792 279.545 584.876 279.927C583.959 280.308 582.976 280.505 581.983 280.506H542.301C541.307 280.506 540.322 280.31 539.404 279.93C538.485 279.549 537.65 278.992 536.947 278.288C536.244 277.585 535.686 276.751 535.306 275.832C534.925 274.913 534.729 273.929 534.729 272.934V242.385C534.729 241.391 534.925 240.406 535.306 239.487C535.686 238.569 536.244 237.734 536.947 237.031C537.65 236.328 538.485 235.77 539.404 235.389C540.322 235.009 541.307 234.813 542.301 234.813H582.026C584.024 234.827 585.935 235.632 587.342 237.051C588.748 238.469 589.536 240.387 589.533 242.385Z" fill="#6B3B5F"/>
<path d="M548.367 262.951C548.804 262.951 550.124 262.842 550.124 261.86V257.954C550.141 257.314 550.397 256.703 550.841 256.241C551.285 255.779 551.885 255.499 552.524 255.456H554.15V257.081H553.342C552.677 257.081 552.6 257.769 552.6 258.26V262.089C552.6 263.486 551.258 263.791 550.342 263.824C551.258 263.824 552.579 264.01 552.6 265.723V269.552C552.6 270.043 552.677 270.73 553.342 270.73H554.15V272.356H552.524C551.885 272.313 551.285 272.033 550.841 271.571C550.397 271.109 550.141 270.498 550.124 269.858V265.952C550.124 264.861 548.804 264.686 548.367 264.686V262.951Z" fill="white"/>
<path d="M575.939 264.73C575.502 264.73 574.182 264.861 574.182 265.995V269.901C574.165 270.542 573.909 271.153 573.465 271.615C573.021 272.077 572.421 272.357 571.782 272.4H570.156V270.774H570.985C571.651 270.774 571.727 270.087 571.727 269.596V265.766C571.727 264.053 573.069 263.922 573.986 263.868C573.069 263.868 571.749 263.529 571.727 262.133V258.303C571.727 257.812 571.651 257.125 570.985 257.125H570.167V255.499H571.793C572.432 255.543 573.032 255.823 573.476 256.285C573.92 256.747 574.176 257.357 574.193 257.998V261.795C574.193 262.788 575.513 262.886 575.95 262.886L575.939 264.73Z" fill="white"/>
<path d="M589.533 242.385V247.327H534.729V242.385C534.729 241.391 534.925 240.406 535.306 239.487C535.686 238.569 536.244 237.734 536.947 237.031C537.65 236.328 538.485 235.77 539.404 235.389C540.322 235.009 541.307 234.813 542.301 234.813H582.026C584.024 234.827 585.935 235.632 587.342 237.051C588.748 238.469 589.536 240.387 589.533 242.385Z" fill="#A349A8"/>
<path d="M544.168 244.054C545.813 244.054 547.147 242.721 547.147 241.076C547.147 239.431 545.813 238.097 544.168 238.097C542.523 238.097 541.189 239.431 541.189 241.076C541.189 242.721 542.523 244.054 544.168 244.054Z" fill="white"/>
<path d="M552.929 244.054C554.574 244.054 555.907 242.721 555.907 241.076C555.907 239.431 554.574 238.097 552.929 238.097C551.284 238.097 549.95 239.431 549.95 241.076C549.95 242.721 551.284 244.054 552.929 244.054Z" fill="white"/>
<path d="M124.495 27.2189V13.0353C124.495 11.9963 124.222 10.9756 123.703 10.0756C123.184 9.17555 122.438 8.4278 121.539 7.90736L109.221 0.793715C108.32 0.27374 107.298 0 106.258 0C105.218 0 104.197 0.27374 103.296 0.793715L90.9782 7.90736C90.079 8.4278 89.3325 9.17555 88.8135 10.0756C88.2946 10.9756 88.0214 11.9963 88.0215 13.0353V27.2189C88.0214 28.2579 88.2946 29.2786 88.8135 30.1786C89.3325 31.0787 90.079 31.8264 90.9782 32.3469L103.296 39.4605C104.197 39.9805 105.218 40.2542 106.258 40.2542C107.298 40.2542 108.32 39.9805 109.221 39.4605L121.539 32.3469C122.438 31.8264 123.184 31.0787 123.703 30.1786C124.222 29.2786 124.495 28.2579 124.495 27.2189Z" fill="#E7AB43"/>
<path d="M114.927 22.582C114.222 24.1389 113.084 25.4599 111.648 26.3867C110.213 27.3136 108.54 27.807 106.831 27.8081C104.408 27.7824 102.092 26.8045 100.383 25.0857C98.6746 23.3669 97.7105 21.045 97.6992 18.6215C97.7192 16.2251 98.6816 13.9328 100.378 12.2403C102.075 10.5478 104.369 9.59094 106.766 9.57669C108.513 9.5688 110.225 10.0702 111.692 11.0197C113.158 11.9692 114.317 13.3255 115.025 14.9228H111.337C110.597 13.9326 109.558 13.2063 108.374 12.851C107.189 12.4957 105.922 12.5302 104.759 12.9493C103.595 13.3684 102.597 14.1501 101.912 15.1791C101.226 16.2081 100.889 17.4302 100.951 18.6651C100.946 20.2384 101.55 21.7525 102.636 22.8911C103.721 24.0297 105.205 24.7047 106.777 24.775C107.62 24.7528 108.447 24.5459 109.201 24.1688C109.955 23.7918 110.617 23.2538 111.141 22.5929L114.927 22.582Z" fill="white"/>
<path d="M116.891 13.8645H119.182V17.5523H122.859V19.8435H119.182V23.5421H116.891V19.8435H113.214V17.5523H116.891V13.8645Z" fill="white"/>
<path d="M129.492 13.8645H131.783V17.5523H135.46V19.8435H131.783V23.5421H129.492V19.8435H125.837V17.5523H129.514L129.492 13.8645Z" fill="#6B6CE3"/>
<path d="M110.933 143.285C110.295 144.698 109.263 145.898 107.961 146.74C106.658 147.581 105.141 148.03 103.59 148.031C101.389 148.014 99.2843 147.13 97.7303 145.572C96.1763 144.014 95.2985 141.907 95.2871 139.706C95.3043 137.532 96.1772 135.452 97.7169 133.916C99.2566 132.38 101.339 131.513 103.514 131.502C105.1 131.494 106.654 131.949 107.986 132.811C109.317 133.674 110.368 134.906 111.009 136.357H107.66C106.988 135.458 106.045 134.798 104.971 134.475C103.896 134.152 102.746 134.183 101.69 134.563C100.634 134.943 99.728 135.652 99.1056 136.586C98.4833 137.52 98.1773 138.629 98.2329 139.75C98.2287 141.176 98.7756 142.549 99.7596 143.582C100.744 144.615 102.089 145.228 103.514 145.292C104.286 145.276 105.044 145.088 105.735 144.743C106.425 144.398 107.031 143.903 107.507 143.296L110.933 143.285Z" fill="white"/>
<path d="M114.665 143.165C114.737 143.674 114.987 144.142 115.37 144.485C115.753 144.828 116.245 145.025 116.76 145.041C117.274 145.056 117.777 144.89 118.18 144.571C118.584 144.251 118.861 143.8 118.964 143.296C118.964 141.659 117.873 141.365 115.942 140.612C114.72 140.143 112.167 139.39 112.167 136.04C112.164 135.434 112.283 134.833 112.518 134.273C112.752 133.714 113.097 133.207 113.532 132.785C113.967 132.362 114.483 132.031 115.049 131.813C115.615 131.594 116.219 131.492 116.826 131.512C118.047 131.501 119.223 131.968 120.103 132.815C120.982 133.662 121.494 134.82 121.528 136.04H118.528C118.54 135.803 118.503 135.567 118.418 135.345C118.333 135.124 118.203 134.923 118.035 134.755C117.867 134.587 117.666 134.457 117.445 134.372C117.223 134.287 116.986 134.249 116.749 134.262C116.534 134.253 116.319 134.288 116.118 134.366C115.916 134.443 115.733 134.562 115.58 134.713C115.426 134.865 115.306 135.046 115.225 135.246C115.145 135.446 115.107 135.661 115.113 135.877C115.113 137.251 116.138 137.546 117.753 138.059C119.062 138.484 121.921 139.499 121.921 142.958C121.941 143.635 121.821 144.31 121.568 144.939C121.316 145.568 120.936 146.138 120.452 146.614C119.969 147.089 119.392 147.459 118.759 147.701C118.125 147.943 117.449 148.052 116.771 148.02C115.442 148.047 114.156 147.551 113.188 146.639C112.221 145.727 111.651 144.471 111.6 143.143L114.665 143.165Z" fill="white"/>
<path d="M125.838 143.165C125.91 143.674 126.16 144.142 126.543 144.485C126.926 144.828 127.418 145.025 127.933 145.041C128.447 145.056 128.95 144.89 129.353 144.571C129.757 144.251 130.034 143.8 130.137 143.296C130.137 141.659 129.046 141.365 127.115 140.612C125.893 140.143 123.34 139.39 123.34 136.04C123.337 135.434 123.456 134.833 123.69 134.273C123.925 133.714 124.27 133.207 124.705 132.785C125.14 132.362 125.656 132.031 126.222 131.813C126.788 131.594 127.392 131.492 127.999 131.512C129.219 131.501 130.396 131.968 131.275 132.815C132.155 133.662 132.667 134.82 132.701 136.04H129.701C129.713 135.803 129.676 135.567 129.591 135.345C129.506 135.124 129.375 134.923 129.208 134.755C129.04 134.587 128.839 134.457 128.617 134.372C128.396 134.287 128.159 134.249 127.922 134.262C127.707 134.253 127.492 134.288 127.29 134.366C127.089 134.443 126.906 134.562 126.753 134.713C126.599 134.865 126.478 135.046 126.398 135.246C126.318 135.446 126.279 135.661 126.286 135.877C126.286 137.251 127.311 137.546 128.926 138.059C130.235 138.484 133.094 139.499 133.094 142.958C133.114 143.635 132.994 144.31 132.741 144.939C132.489 145.568 132.108 146.138 131.625 146.614C131.141 147.089 130.565 147.459 129.931 147.701C129.298 147.943 128.621 148.052 127.944 148.02C126.615 148.047 125.328 147.551 124.361 146.639C123.394 145.727 122.824 144.471 122.772 143.143L125.838 143.165Z" fill="white"/>
<path d="M126.83 125.599H117.48C116.247 125.599 115.065 125.109 114.193 124.238C113.322 123.366 112.832 122.184 112.832 120.951V111.601L126.83 125.599Z" fill="white"/>
<path d="M201.382 204.766C202.129 206.601 203.08 208.347 204.219 209.97C208.986 216.942 216.766 222.582 221.566 224.394" stroke="#2B292B" stroke-width="0.75" stroke-miterlimit="10"/>
<path d="M134.086 333.804C130.177 333.741 126.273 334.107 122.444 334.895C123.829 322.665 125.982 310.534 128.892 298.574L133.104 297.592L134.086 333.804Z" fill="#E44543"/>
<path d="M297.406 263.925L289.529 256.048L281.652 263.925L289.529 271.802L297.406 263.925Z" stroke="#011859" stroke-width="0.75" stroke-miterlimit="10"/>
<path d="M293.283 234.415L289.511 230.643L285.738 234.415L289.511 238.188L293.283 234.415Z" stroke="#011859" stroke-width="0.75" stroke-miterlimit="10"/>
<path d="M318.734 259.85L314.961 256.078L311.188 259.85L314.961 263.623L318.734 259.85Z" stroke="#011859" stroke-width="0.75" stroke-miterlimit="10"/>
<path d="M166.849 296.01C171.715 298.072 174.977 300.167 179.341 300.931" stroke="#2B292B" stroke-width="0.75" stroke-miterlimit="10"/>
<path d="M180.084 321.126C188.038 324.519 199.723 332.037 199.723 332.037" stroke="#2B292B" stroke-width="0.75" stroke-miterlimit="10"/>
<path d="M253.413 242.538C257.526 230.591 262.436 226.292 262.436 226.292" stroke="#2B292B" stroke-width="0.75" stroke-miterlimit="10"/>
<path d="M72.5175 309.092C56.7191 310.052 49.54 303.375 62.698 287.565" stroke="#2B292B" stroke-width="0.75" stroke-miterlimit="10"/>
<path d="M93.5527 228.278C98.7981 232.469 103.54 237.254 107.682 242.538" stroke="#2B292B" stroke-width="0.75" stroke-miterlimit="10"/>
<path d="M121.866 340.885C122.041 338.845 122.226 336.815 122.444 334.819C123.829 322.588 125.983 310.457 128.893 298.498C130.551 291.7 131.795 287.587 131.795 287.587" stroke="#2B292B" stroke-width="0.75" stroke-miterlimit="10"/>
<path d="M114.599 218.153C114.599 218.153 116.323 237.966 112.417 247.076" stroke="#2B292B" stroke-width="0.75" stroke-miterlimit="10"/>
<path d="M117.184 301.433L87.4307 309.485" stroke="#2B292B" stroke-width="0.75" stroke-miterlimit="10"/>
<path d="M114.981 307.859L113.704 337.252" stroke="#2B292B" stroke-width="0.75" stroke-miterlimit="10"/>
<path d="M93.5527 346.591L102.303 342.314" stroke="#2B292B" stroke-width="0.75" stroke-miterlimit="10"/>
<path d="M183.303 222.211C187.667 234.835 202.516 241.698 202.516 241.698L210.557 233.602" stroke="#2B292B" stroke-width="0.75" stroke-miterlimit="10"/>
<path d="M152.917 228.282L145.04 220.405L137.163 228.282L145.04 236.159L152.917 228.282Z" stroke="#2B292B" stroke-width="0.75" stroke-miterlimit="10"/>
<path d="M75.5966 263.917L67.7197 256.04L59.8428 263.917L67.7197 271.794L75.5966 263.917Z" stroke="#2B292B" stroke-width="0.75" stroke-miterlimit="10"/>
<path d="M51.4238 320.136L43.5469 312.259L35.67 320.136L43.5469 328.013L51.4238 320.136Z" stroke="#2B292B" stroke-width="0.75" stroke-miterlimit="10"/>
<path d="M108.453 317.116L100.576 309.239L92.6993 317.116L100.576 324.993L108.453 317.116Z" stroke="#2B292B" stroke-width="0.75" stroke-miterlimit="10"/>
<path d="M156.701 279.141L148.824 271.264L140.947 279.141L148.824 287.018L156.701 279.141Z" stroke="#2B292B" stroke-width="0.75" stroke-miterlimit="10"/>
<path d="M205.752 259.859L197.875 251.982L189.998 259.859L197.875 267.735L205.752 259.859Z" stroke="#2B292B" stroke-width="0.75" stroke-miterlimit="10"/>
<path d="M265.799 218.246L257.922 210.369L250.045 218.246L257.922 226.123L265.799 218.246Z" stroke="#2B292B" stroke-width="0.75" stroke-miterlimit="10"/>
<path d="M233.434 280.517L225.557 272.641L217.68 280.517L225.557 288.394L233.434 280.517Z" stroke="#2B292B" stroke-width="0.75" stroke-miterlimit="10"/>
<path d="M133.438 356.976L125.562 349.099L117.685 356.976L125.562 364.853L133.438 356.976Z" stroke="#2B292B" stroke-width="0.75" stroke-miterlimit="10"/>
<path d="M110.185 207.913L102.308 200.036L94.4307 207.913L102.308 215.79L110.185 207.913Z" stroke="#2B292B" stroke-width="0.75" stroke-miterlimit="10"/>
<path d="M170.621 250.819L166.849 247.047L163.076 250.819L166.849 254.592L170.621 250.819Z" stroke="#2B292B" stroke-width="0.75" stroke-miterlimit="10"/>
<path d="M206.729 294.202L202.956 290.43L199.183 294.202L202.956 297.975L206.729 294.202Z" stroke="#2B292B" stroke-width="0.75" stroke-miterlimit="10"/>
<path d="M223.368 326.574L219.596 322.802L215.823 326.574L219.596 330.347L223.368 326.574Z" stroke="#2B292B" stroke-width="0.75" stroke-miterlimit="10"/>
<path d="M158.705 351.13L154.933 347.358L151.16 351.13L154.933 354.903L158.705 351.13Z" stroke="#2B292B" stroke-width="0.75" stroke-miterlimit="10"/>
<path d="M229.324 240.077L225.552 236.305L221.779 240.077L225.552 243.85L229.324 240.077Z" stroke="#2B292B" stroke-width="0.75" stroke-miterlimit="10"/>
<path d="M280.515 193.133L276.742 189.361L272.97 193.133L276.742 196.906L280.515 193.133Z" stroke="#2B292B" stroke-width="0.75" stroke-miterlimit="10"/>
<path d="M85.0284 235.409L81.2559 231.637L77.4833 235.409L81.2558 239.182L85.0284 235.409Z" stroke="#2B292B" stroke-width="0.75" stroke-miterlimit="10"/>
<path d="M39.4396 286.065L35.667 282.292L31.8944 286.065L35.667 289.837L39.4396 286.065Z" stroke="#2B292B" stroke-width="0.75" stroke-miterlimit="10"/>
<path d="M24.1027 348.247L20.3301 344.474L16.5575 348.247L20.3301 352.02L24.1027 348.247Z" stroke="#2B292B" stroke-width="0.75" stroke-miterlimit="10"/>
<path d="M80.0607 334.812L76.2881 331.039L72.5155 334.812L76.2881 338.584L80.0607 334.812Z" stroke="#2B292B" stroke-width="0.75" stroke-miterlimit="10"/>
<path d="M130.599 264.467L126.826 260.695L123.054 264.467L126.826 268.24L130.599 264.467Z" stroke="#2B292B" stroke-width="0.75" stroke-miterlimit="10"/>
<path d="M170.617 200.593L166.845 196.82L163.072 200.593L166.845 204.365L170.617 200.593Z" stroke="#2B292B" stroke-width="0.75" stroke-miterlimit="10"/>
<path d="M135.564 189.943L131.791 186.171L128.018 189.943L131.791 193.716L135.564 189.943Z" stroke="#2B292B" stroke-width="0.75" stroke-miterlimit="10"/>
<path d="M495.452 234.9L439.634 373.595H215.631L271.744 234.191C272.445 232.45 273.651 230.958 275.206 229.907C276.761 228.855 278.595 228.292 280.472 228.289H490.979C491.768 228.287 492.544 228.479 493.241 228.848C493.938 229.216 494.534 229.751 494.976 230.404C495.417 231.057 495.692 231.809 495.775 232.593C495.858 233.377 495.747 234.169 495.452 234.9Z" fill="white" stroke="#011859" stroke-width="0.5" stroke-miterlimit="10"/>
<path d="M495.453 234.9L439.635 373.595H224.032L280.101 234.191C280.803 232.45 282.009 230.958 283.564 229.907C285.119 228.855 286.952 228.292 288.83 228.289H490.979C491.768 228.287 492.545 228.479 493.242 228.848C493.938 229.216 494.534 229.751 494.976 230.404C495.418 231.057 495.692 231.809 495.775 232.593C495.859 233.377 495.748 234.169 495.453 234.9Z" fill="#494B4C"/>
<path d="M383.555 304.04C382.99 307.136 381.59 310.019 379.504 312.376C377.419 314.733 374.728 316.474 371.724 317.412C368.72 318.349 365.517 318.447 362.461 317.695C359.405 316.942 356.613 315.368 354.388 313.143C352.163 310.917 350.589 308.126 349.836 305.07C349.084 302.014 349.182 298.811 350.119 295.807C351.057 292.802 352.798 290.112 355.155 288.027C357.512 285.941 360.395 284.54 363.491 283.976C362.99 286.721 363.163 289.546 363.994 292.209C364.825 294.873 366.29 297.295 368.263 299.268C370.236 301.241 372.658 302.706 375.321 303.537C377.985 304.368 380.81 304.541 383.555 304.04Z" fill="white"/>
<path d="M380.445 294.079C384.313 294.079 387.45 290.943 387.45 287.074C387.45 283.206 384.313 280.07 380.445 280.07C376.576 280.07 373.44 283.206 373.44 287.074C373.44 290.943 376.576 294.079 380.445 294.079Z" fill="white"/>
<path d="M525.686 329.658H525.675H484.063H478.913" stroke="#011859" stroke-width="0.75" stroke-miterlimit="10"/>
<path d="M489.789 349.722C490.564 362.815 487.334 375.831 512.701 375.198" stroke="#011859" stroke-width="0.75" stroke-miterlimit="10"/>
<path d="M531.314 361.648C536.77 359.247 543.414 349.919 541.898 340.601" stroke="#011859" stroke-width="0.75" stroke-miterlimit="10"/>
</svg>
